<?xml version="1.0" encoding="UTF-8" standalone="no"?><!DOCTYPE svg PUBLIC "-//W3C//DTD SVG 1.1//EN" "http://www.w3.org/Graphics/SVG/1.1/DTD/svg11.dtd"><svg width="100%" height="100%" viewBox="0 0 28 48" version="1.1" xmlns="http://www.w3.org/2000/svg" xmlns:xlink="http://www.w3.org/1999/xlink" xml:space="preserve" xmlns:serif="http://www.serif.com/" style="fill-rule:evenodd;clip-rule:evenodd;stroke-linejoin:round;stroke-miterlimit:2;"><g><path d="M27.251,41.407c-0.051,3.018 -1.687,5.471 -3.649,5.483l-19.435,0.064c-1.961,0.009 -3.514,-2.433 -3.465,-5.452l0.6,-35.689c0.053,-3.022 1.687,-5.478 3.649,-5.482l19.436,-0.07c1.962,-0.009 3.515,2.438 3.463,5.457l-0.599,35.689Z" style="fill:#8294af;fill-rule:nonzero;"/><path d="M7.29,46.068l-1.388,-0.788l0.045,-2.783c0.533,1.774 1.011,3.035 1.343,3.571Z" style="fill:#0a4f72;fill-rule:nonzero;"/><path d="M22.897,44.555c-0.024,1.412 -0.954,2.56 -2.075,2.565l-14.777,0.052c-1.121,0.002 -2.011,-1.138 -1.987,-2.55c0.023,-1.41 0.953,-2.561 2.074,-2.564l14.777,-0.053c1.122,-0.002 2.01,1.14 1.988,2.55Z" style="fill:#8294af;fill-rule:nonzero;"/><path d="M24.418,4.714c5.276,15.736 -3.185,41.619 -4.481,41.624l-12.354,0.019c-1.299,0.004 -9.088,-28.75 -3.183,-41.192l0.012,-0.243c0.03,-1.658 1.376,-3.139 2.674,-3.144l15.034,-0.054c1.296,-0.007 2.326,1.331 2.298,2.99Z" style="fill:#516a8e;fill-rule:nonzero;"/><path d="M22.19,4.477c-0.01,0.511 -0.578,0.926 -1.269,0.928l-12.869,0.046c-0.692,0.002 -1.242,-0.408 -1.234,-0.918c0.006,-0.505 0.573,-0.92 1.262,-0.922l12.871,-0.047c0.692,0 1.248,0.409 1.239,0.913Z" style="fill:#001e1c;fill-rule:nonzero;"/><g><path d="M17.546,31.959l-0.119,0.136l-2.647,0.014l-0.113,-0.14l0.033,-2.005l0.119,-0.14l2.65,-0.008l0.111,0.137l-0.034,2.006Z" style="fill:#96d5e7;fill-rule:nonzero;"/><path d="M21.325,31.947l-0.117,0.139l-2.652,0.007l-0.111,-0.138l0.035,-2.005l0.117,-0.14l2.649,-0.009l0.114,0.139l-0.035,2.007Z" style="fill:#96d5e7;fill-rule:nonzero;"/><path d="M9.912,31.987l-0.118,0.139l-2.65,0.011l-0.112,-0.14l0.034,-2.007l0.119,-0.137l2.648,-0.01l0.112,0.138l-0.033,2.006Z" style="fill:#96d5e7;fill-rule:nonzero;"/><path d="M13.686,31.975l-0.112,0.137l-2.652,0.008l-0.114,-0.138l0.037,-2.005l0.117,-0.14l2.649,-0.011l0.11,0.14l-0.035,2.009Z" style="fill:#96d5e7;fill-rule:nonzero;"/><path d="M17.491,35.382l-0.12,0.138l-2.649,0.009l-0.114,-0.136l0.034,-2.007l0.117,-0.138l2.649,-0.012l0.115,0.138l-0.032,2.008Z" style="fill:#96d5e7;fill-rule:nonzero;"/><path d="M21.267,35.372l-0.117,0.136l-2.65,0.008l-0.111,-0.136l0.033,-2.008l0.115,-0.137l2.651,-0.01l0.113,0.136l-0.034,2.011Z" style="fill:#bbd623;fill-rule:nonzero;"/><path d="M9.855,35.41l-0.118,0.138l-2.652,0.009l-0.112,-0.137l0.036,-2.008l0.116,-0.138l2.647,-0.01l0.115,0.138l-0.032,2.008Z" style="fill:#96d5e7;fill-rule:nonzero;"/><path d="M13.631,35.395l-0.116,0.139l-2.651,0.01l-0.109,-0.138l0.03,-2.007l0.119,-0.138l2.65,-0.011l0.111,0.138l-0.034,2.007Z" style="fill:#96d5e7;fill-rule:nonzero;"/><path d="M17.44,38.428l-0.121,0.137l-2.649,0.009l-0.112,-0.137l0.034,-2.008l0.117,-0.137l2.648,-0.009l0.115,0.135l-0.032,2.01Z" style="fill:#96d5e7;fill-rule:nonzero;"/><path d="M9.803,38.454l-0.118,0.139l-2.649,0.008l-0.113,-0.139l0.034,-2.006l0.117,-0.136l2.648,-0.01l0.113,0.137l-0.032,2.007Z" style="fill:#96d5e7;fill-rule:nonzero;"/><path d="M13.578,38.439l-0.112,0.141l-2.653,0.007l-0.11,-0.138l0.03,-2.008l0.119,-0.135l2.651,-0.01l0.111,0.136l-0.036,2.007Z" style="fill:#96d5e7;fill-rule:nonzero;"/><path d="M17.381,41.851l-0.118,0.138l-2.649,0.008l-0.113,-0.138l0.035,-2.006l0.116,-0.138l2.647,-0.01l0.116,0.139l-0.034,2.007Z" style="fill:#96d5e7;fill-rule:nonzero;"/><path d="M21.159,41.836l-0.117,0.137l-2.653,0.012l-0.109,-0.136l0.032,-2.01l0.117,-0.14l2.652,-0.008l0.113,0.139l-0.035,2.006Z" style="fill:#7a1600;fill-rule:nonzero;"/><path d="M9.742,41.875l-0.116,0.139l-2.647,0.01l-0.115,-0.137l0.034,-2.006l0.118,-0.138l2.649,-0.01l0.115,0.136l-0.038,2.006Z" style="fill:#96d5e7;fill-rule:nonzero;"/><path d="M13.522,41.862l-0.117,0.14l-2.649,0.01l-0.11,-0.138l0.034,-2.004l0.115,-0.14l2.649,-0.011l0.112,0.138l-0.034,2.005Z" style="fill:#96d5e7;fill-rule:nonzero;"/><path d="M21.266,38.412l-0.122,0.139l-2.646,0.009l-0.113,-0.136l0.033,-2.006l0.117,-0.141l2.649,-0.01l0.113,0.14l-0.031,2.005Z" style="fill:#f9c941;fill-rule:nonzero;"/></g><path d="M25.026,24.466c-0.021,1.282 -1.078,2.326 -2.358,2.331l-17.272,0.061c-1.281,0.004 -2.3,-1.034 -2.278,-2.315l0.232,-13.791c0.022,-1.282 1.079,-2.327 2.356,-2.332l17.271,-0.062c1.28,-0.005 2.302,1.034 2.278,2.313l-0.229,13.795Z" style="fill:#c7d1dd;fill-rule:nonzero;"/><path d="M24.208,23.869c-0.012,0.698 -0.468,1.262 -1.014,1.265l-17.943,0.064c-0.546,0 -0.984,-0.559 -0.971,-1.259l0.229,-13.659c0.012,-0.698 0.465,-1.262 1.012,-1.264l17.943,-0.062c0.549,-0.004 0.985,0.557 0.973,1.255l-0.229,13.66Z" style="fill:#001e1c;fill-rule:nonzero;"/><path d="M22.681,22.525c-0.01,0.579 -0.403,1.055 -0.874,1.058l-15.493,0.055c-0.475,0 -0.85,-0.471 -0.841,-1.053l0.194,-11.427c0.007,-0.58 0.399,-1.056 0.874,-1.058l15.493,-0.055c0.47,0 0.851,0.471 0.84,1.05l-0.193,11.43Z" style="fill:#bbd623;fill-rule:nonzero;"/><path d="M21.331,47.002c-0.104,-2.091 -1.914,-3.742 -4.16,-3.732l-7.342,0.025c-2.249,0.007 -4.114,1.674 -4.284,3.763l15.786,-0.056Z" style="fill:#002933;fill-rule:nonzero;"/><path d="M22.583,23.934c-0.121,0.076 -0.258,0.12 -0.402,0.119l-15.833,0.056c-0.482,0.004 -0.867,-0.481 -0.855,-1.076c0,-0.018 0.01,-0.045 0.027,-0.083c0.114,0.402 0.424,0.689 0.794,0.688l15.493,-0.055c0.139,-0.001 0.272,-0.043 0.389,-0.117c0.281,-0.176 0.478,-0.533 0.485,-0.941l0.193,-11.43c0.008,-0.381 -0.156,-0.716 -0.402,-0.9c0.458,0.036 0.814,0.501 0.8,1.072l-0.195,11.705c-0.007,0.417 -0.207,0.782 -0.494,0.962Z" style="fill:#001904;fill-rule:nonzero;"/><path d="M22.196,23.466c-0.117,0.074 -0.25,0.116 -0.389,0.117l-15.493,0.055c-0.37,0.001 -0.68,-0.286 -0.794,-0.688c0.558,-1.193 9.666,-12.142 10.572,-12.711c0.025,-0.015 0.043,-0.023 0.055,-0.024l6.268,-0.022c0.019,0 0.038,0 0.057,0.002c0.246,0.184 0.41,0.519 0.402,0.9l-0.193,11.43c-0.007,0.408 -0.204,0.765 -0.485,0.941Z" style="fill:#89b405;fill-rule:nonzero;"/></g></svg>